<?xml version="1.0" standalone="no"?>
<!DOCTYPE svg PUBLIC "-//W3C//DTD SVG 20010904//EN"
 "http://www.w3.org/TR/2001/REC-SVG-20010904/DTD/svg10.dtd">
<svg version="1.0" xmlns="http://www.w3.org/2000/svg"
 width="2000.000000pt" height="2000.000000pt" viewBox="0 0 2000.000000 2000.000000"
 preserveAspectRatio="xMidYMid meet">

<g transform="translate(0.000000,2000.000000) scale(0.100000,-0.100000)"
fill="#000000" stroke="none">
<path d="M11119 17986 c-19 -7 -73 -35 -120 -63 -46 -28 -115 -68 -154 -90
-66 -37 -518 -298 -880 -508 -338 -195 -807 -466 -965 -557 -91 -52 -370 -213
-620 -358 -250 -144 -657 -380 -905 -522 -247 -143 -553 -320 -680 -393 -326
-189 -669 -387 -1125 -649 -483 -279 -562 -325 -715 -414 -66 -38 -255 -147
-420 -242 -165 -95 -340 -196 -390 -225 -49 -29 -193 -112 -320 -185 -126 -73
-304 -175 -395 -228 -305 -175 -329 -192 -370 -243 -72 -92 -81 -131 -78 -370
l3 -208 205 118 c113 64 322 185 465 267 1099 635 1935 1117 2180 1259 365
211 664 384 1320 762 286 165 606 350 710 410 105 61 309 179 455 263 281 162
540 312 1155 667 209 121 547 315 750 433 204 117 429 247 501 289 72 42 221
128 332 191 l201 115 1 201 c0 221 -6 256 -51 279 -34 18 -43 18 -90 1z m-187
-351 c30 -66 -67 -202 -128 -178 -70 27 3 203 85 203 24 0 34 -6 43 -25z
m-262 -144 c15 -29 12 -60 -10 -105 -33 -66 -107 -103 -131 -65 -25 40 4 131
54 171 30 24 74 23 87 -1z m-266 -137 c35 -34 8 -132 -47 -176 -26 -20 -68
-23 -85 -6 -38 38 16 160 83 188 28 12 32 12 49 -6z"/>
<path d="M14056 16250 c-19 -29 -33 -40 -51 -40 -19 0 -25 5 -25 23 0 43 -13
48 -53 21 -32 -21 -37 -30 -37 -62 0 -53 -45 -97 -83 -83 -24 9 -28 7 -52 -36
l-25 -46 21 -23 c18 -20 20 -27 10 -56 -6 -19 -26 -43 -46 -57 -31 -21 -35
-28 -35 -68 0 -39 2 -44 18 -38 67 29 87 3 51 -66 -20 -41 -20 -43 -3 -56 29
-21 42 -16 71 27 33 52 66 52 71 3 4 -38 9 -39 51 -16 31 18 41 38 41 84 0 39
41 73 78 64 27 -6 32 -2 56 42 l27 47 -22 17 c-31 23 -18 70 32 110 34 27 39
36 39 71 0 37 -2 40 -24 34 -13 -3 -31 -9 -40 -12 -26 -10 -30 38 -7 84 l21
41 -22 15 c-31 22 -32 21 -62 -24z m-36 -160 c36 -36 22 -132 -30 -198 -31
-39 -71 -62 -108 -62 -70 0 -76 110 -10 201 30 42 82 79 111 79 9 0 26 -9 37
-20z"/>
<path d="M16261 14425 c-88 -25 -145 -73 -187 -160 l-24 -50 0 -411 c0 -317
-3 -414 -12 -421 -7 -6 -152 -90 -323 -188 -386 -221 -387 -222 -419 -287 -77
-154 32 -338 201 -338 59 0 100 13 168 53 112 67 376 217 381 217 2 0 3 -136
2 -302 l-3 -302 -402 -231 c-221 -127 -413 -241 -427 -254 -64 -60 -86 -182
-47 -267 24 -52 90 -108 147 -124 92 -26 120 -15 433 165 158 91 291 165 294
165 4 0 7 -452 7 -1004 l0 -1004 -87 -63 c-49 -35 -144 -120 -213 -189 -375
-374 -638 -894 -726 -1435 -22 -134 -25 -433 -6 -545 89 -508 395 -810 823
-811 317 -2 634 154 939 460 354 354 629 890 715 1391 67 390 8 803 -148 1029
-48 70 -57 81 -127 152 -129 130 -350 218 -552 219 l-48 0 0 2163 0 2164 -31
61 c-62 125 -194 184 -328 147z m516 -5120 c83 -42 139 -134 169 -280 24 -118
15 -381 -20 -526 -70 -299 -193 -566 -378 -817 -262 -355 -625 -563 -808 -462
-84 47 -145 158 -171 314 -16 97 -6 325 21 461 114 579 538 1165 944 1307 105
36 174 37 243 3z"/>
<path d="M6371 14317 l-144 -84 -1 -141 c-1 -78 2 -142 5 -142 8 0 221 123
266 153 45 31 53 55 53 170 0 94 -8 127 -29 127 -4 0 -71 -38 -150 -83z"/>
<path d="M10481 14256 c-134 -79 -250 -151 -258 -162 -18 -25 -13 -69 8 -68
27 2 508 284 524 307 23 34 20 67 -7 66 -13 -1 -133 -65 -267 -143z"/>
<path d="M12472 14330 c-415 -112 -840 -579 -1031 -1134 -68 -198 -85 -294
-85 -496 -1 -196 15 -278 77 -395 41 -78 131 -169 199 -200 l53 -25 7 113 c8
139 33 229 103 372 73 148 166 268 279 359 36 29 151 99 266 163 136 76 283
71 366 -13 55 -55 85 -134 92 -247 l5 -88 55 93 c186 316 293 716 262 984 -28
253 -119 408 -286 491 -70 34 -82 37 -182 40 -83 2 -123 -1 -180 -17z m-70
-510 c32 0 94 -70 108 -120 25 -94 -10 -257 -82 -378 -77 -130 -226 -242 -321
-242 -220 0 -216 366 7 607 83 89 200 152 254 137 8 -2 23 -4 34 -4z"/>
<path d="M10500 14079 c-135 -78 -255 -150 -267 -162 -29 -26 -32 -77 -4 -77
11 0 68 28 128 63 59 35 172 101 251 147 79 45 147 91 153 102 12 22 8 60 -6
65 -6 2 -121 -60 -255 -138z"/>
<path d="M10670 13992 c-36 -22 -146 -85 -245 -142 -99 -56 -188 -112 -197
-122 -23 -26 -24 -78 -2 -78 12 0 373 203 494 278 35 22 49 43 50 75 0 37 -21
35 -100 -11z"/>
<path d="M13180 11779 c-76 -43 -745 -429 -965 -557 -99 -57 -243 -140 -320
-185 -77 -44 -176 -101 -220 -127 -86 -50 -246 -143 -362 -209 -89 -51 -124
-94 -131 -161 -4 -45 -2 -50 21 -61 30 -14 10 -24 417 213 157 91 375 217 485
280 110 63 245 141 300 173 55 32 183 106 285 165 102 59 244 141 315 182 72
42 148 86 170 98 60 35 86 61 107 108 28 61 13 112 -32 112 -8 0 -40 -14 -70
-31z"/>
<path d="M9874 10863 c-131 -200 -267 -407 -329 -503 -37 -58 -124 -192 -194
-298 -198 -302 -315 -482 -461 -706 -74 -114 -173 -264 -219 -334 -46 -70
-102 -156 -123 -192 -100 -164 -230 -238 -397 -227 -68 4 -123 22 -501 165
-234 87 -711 266 -1060 396 -349 131 -682 255 -739 277 -58 21 -106 37 -108
36 -1 -2 52 -27 120 -56 67 -30 259 -114 427 -188 168 -74 402 -178 520 -230
118 -52 251 -111 295 -130 44 -19 114 -50 155 -69 41 -19 152 -67 245 -108 99
-44 170 -80 169 -88 -1 -11 -160 -258 -344 -533 -33 -49 -96 -144 -139 -210
-43 -66 -129 -196 -190 -288 -61 -93 -108 -173 -105 -179 4 -6 3 -8 -3 -5 -11
7 -156 -208 -156 -230 0 -7 -3 -11 -6 -8 -2 3 -60 -79 -128 -182 -370 -561
-461 -699 -678 -1028 -131 -198 -260 -396 -288 -440 -28 -44 -55 -82 -59 -85
-11 -8 1 -113 15 -127 10 -10 38 29 137 188 135 218 237 381 313 502 28 44 46
81 41 88 -4 7 -3 9 4 5 10 -6 45 47 196 291 48 77 196 313 241 383 23 36 106
169 185 295 78 127 154 248 168 270 27 42 157 248 254 403 32 52 56 98 52 103
-3 5 -1 8 5 7 5 -2 43 50 83 114 200 323 419 668 423 668 3 0 105 -44 140 -60
235 -109 305 -127 413 -109 82 15 197 73 188 96 -3 7 1 10 8 7 19 -7 72 69
262 373 93 150 181 292 196 315 15 24 37 60 48 81 11 20 27 37 34 37 8 0 155
-62 328 -139 647 -286 613 -272 616 -249 2 11 0 24 -5 29 -4 4 -170 71 -368
149 -369 144 -557 219 -564 226 -2 2 52 92 119 201 152 243 173 277 237 378
28 44 142 226 253 405 111 179 213 341 225 360 90 141 106 173 103 201 -3 28
-6 26 -54 -48z"/>
</g>
</svg>
